# xmcd
#
# Track frame offsets:
#	150
#	18459
#	35452
#	55989
#	75090
#	93274
#	109600
#	122956
#
# Disc length: 1843 seconds
#
# Revision: 0
# Processed by: cddbd v1.5.1PL2 Copyright (c) Steve Scherf et al.
# Submitted via: dBpowerAMP V4.0
#
DISCID=57073108
DTITLE=Blandet - Linedance 1 
DYEAR=2006
DGENRE=
TTITLE0=Walk on the wather
TTITLE1=Wanna have sex on the beach
TTITLE2=Levantango lesmantes
TTITLE3=Last night
TTITLE4=Wave on wave
TTITLE5=Forever and ever
TTITLE6=Speak to the sky
TTITLE7=Somone Could loose a heart tonight
EXTD=linedance 1 
EXTT0=
EXTT1=
EXTT2=
EXTT3=
EXTT4=
EXTT5=
EXTT6=
EXTT7=
PLAYORDER=
